<mxfile host="app.diagrams.net" agent="Mozilla/5.0 (Windows NT 10.0; Win64; x64) AppleWebKit/537.36 (KHTML, like Gecko) Chrome/133.0.0.0 Safari/537.36" version="26.1.0">
  <diagram name="第 1 页" id="SBA_nFeqGvohc5Aon4uz">
    <mxGraphModel dx="1050" dy="569" grid="1" gridSize="10" guides="1" tooltips="1" connect="1" arrows="1" fold="1" page="1" pageScale="1" pageWidth="827" pageHeight="1169" math="0" shadow="0">
      <root>
        <mxCell id="0" />
        <mxCell id="1" parent="0" />
        <mxCell id="r7i42FBxpiTpP9dNDPeG-1" value="&lt;p class=&quot;MsoNormal&quot;&gt;&lt;span style=&quot;mso-spacerun:&#39;yes&#39;;font-family:宋体;mso-ascii-font-family:&#39;Times New Roman&#39;;&lt;br/&gt;mso-hansi-font-family:&#39;Times New Roman&#39;;mso-bidi-font-family:&#39;Times New Roman&#39;;&quot;&gt;&lt;font style=&quot;font-size: 20px;&quot;&gt;车联网&lt;/font&gt;&lt;/span&gt;&lt;/p&gt;" style="ellipse;whiteSpace=wrap;html=1;fillColor=#dae8fc;strokeColor=#6c8ebf;" vertex="1" parent="1">
          <mxGeometry x="350" y="40" width="150" height="70" as="geometry" />
        </mxCell>
        <mxCell id="r7i42FBxpiTpP9dNDPeG-3" value="&lt;p class=&quot;MsoNormal&quot;&gt;&lt;span style=&quot;font-family: 宋体; background-color: transparent; color: light-dark(rgb(0, 0, 0), rgb(255, 255, 255));&quot;&gt;&lt;font style=&quot;font-size: 20px;&quot;&gt;车联网计算卸载&lt;/font&gt;&lt;/span&gt;&lt;/p&gt;" style="ellipse;whiteSpace=wrap;html=1;fillColor=#d5e8d4;strokeColor=#82b366;" vertex="1" parent="1">
          <mxGeometry y="160" width="180" height="70" as="geometry" />
        </mxCell>
        <mxCell id="r7i42FBxpiTpP9dNDPeG-4" value="&lt;p class=&quot;MsoNormal&quot;&gt;&lt;span style=&quot;mso-spacerun:&#39;yes&#39;;font-family:宋体;mso-ascii-font-family:&#39;Times New Roman&#39;;&lt;br/&gt;mso-hansi-font-family:&#39;Times New Roman&#39;;mso-bidi-font-family:&#39;Times New Roman&#39;;&quot;&gt;&lt;font style=&quot;font-size: 20px;&quot;&gt;车联网资源分配&lt;/font&gt;&lt;/span&gt;&lt;/p&gt;" style="ellipse;whiteSpace=wrap;html=1;fillColor=#ffe6cc;strokeColor=#d79b00;" vertex="1" parent="1">
          <mxGeometry x="220" y="160" width="180" height="70" as="geometry" />
        </mxCell>
        <mxCell id="r7i42FBxpiTpP9dNDPeG-37" value="" style="edgeStyle=orthogonalEdgeStyle;rounded=0;orthogonalLoop=1;jettySize=auto;html=1;" edge="1" parent="1" source="r7i42FBxpiTpP9dNDPeG-5" target="r7i42FBxpiTpP9dNDPeG-30">
          <mxGeometry relative="1" as="geometry" />
        </mxCell>
        <mxCell id="r7i42FBxpiTpP9dNDPeG-5" value="&lt;p class=&quot;MsoNormal&quot;&gt;&lt;span style=&quot;font-family: 宋体; font-size: 20px;&quot;&gt;车联网服务缓存&lt;/span&gt;&lt;/p&gt;" style="ellipse;whiteSpace=wrap;html=1;fillColor=#fff2cc;strokeColor=#d6b656;" vertex="1" parent="1">
          <mxGeometry x="440" y="160" width="180" height="70" as="geometry" />
        </mxCell>
        <mxCell id="r7i42FBxpiTpP9dNDPeG-6" value="&lt;p class=&quot;MsoNormal&quot;&gt;&lt;span style=&quot;font-family: 宋体; font-size: 20px;&quot;&gt;车联网通信技术&lt;/span&gt;&lt;/p&gt;" style="ellipse;whiteSpace=wrap;html=1;fillColor=#f8cecc;strokeColor=#b85450;" vertex="1" parent="1">
          <mxGeometry x="660" y="160" width="180" height="70" as="geometry" />
        </mxCell>
        <mxCell id="r7i42FBxpiTpP9dNDPeG-10" value="" style="endArrow=classic;html=1;rounded=0;exitX=0.5;exitY=1;exitDx=0;exitDy=0;entryX=0.5;entryY=0;entryDx=0;entryDy=0;" edge="1" parent="1" source="r7i42FBxpiTpP9dNDPeG-1" target="r7i42FBxpiTpP9dNDPeG-4">
          <mxGeometry width="50" height="50" relative="1" as="geometry">
            <mxPoint x="420" y="200" as="sourcePoint" />
            <mxPoint x="470" y="150" as="targetPoint" />
          </mxGeometry>
        </mxCell>
        <mxCell id="r7i42FBxpiTpP9dNDPeG-11" value="" style="endArrow=classic;html=1;rounded=0;entryX=0.5;entryY=0;entryDx=0;entryDy=0;" edge="1" parent="1" target="r7i42FBxpiTpP9dNDPeG-3">
          <mxGeometry width="50" height="50" relative="1" as="geometry">
            <mxPoint x="420" y="110" as="sourcePoint" />
            <mxPoint x="430" y="330" as="targetPoint" />
          </mxGeometry>
        </mxCell>
        <mxCell id="r7i42FBxpiTpP9dNDPeG-13" value="" style="endArrow=classic;html=1;rounded=0;exitX=0.5;exitY=1;exitDx=0;exitDy=0;entryX=0.5;entryY=0;entryDx=0;entryDy=0;" edge="1" parent="1" source="r7i42FBxpiTpP9dNDPeG-1" target="r7i42FBxpiTpP9dNDPeG-5">
          <mxGeometry width="50" height="50" relative="1" as="geometry">
            <mxPoint x="550" y="380" as="sourcePoint" />
            <mxPoint x="600" y="330" as="targetPoint" />
          </mxGeometry>
        </mxCell>
        <mxCell id="r7i42FBxpiTpP9dNDPeG-14" value="" style="endArrow=classic;html=1;rounded=0;entryX=0.5;entryY=0;entryDx=0;entryDy=0;" edge="1" parent="1" target="r7i42FBxpiTpP9dNDPeG-6">
          <mxGeometry width="50" height="50" relative="1" as="geometry">
            <mxPoint x="430" y="110" as="sourcePoint" />
            <mxPoint x="620" y="330" as="targetPoint" />
          </mxGeometry>
        </mxCell>
        <mxCell id="r7i42FBxpiTpP9dNDPeG-26" value="&lt;span style=&quot;font-family: 宋体; font-size: 20px;&quot;&gt;整体卸载技术&lt;/span&gt;" style="rounded=1;whiteSpace=wrap;html=1;fillColor=#d5e8d4;strokeColor=#82b366;" vertex="1" parent="1">
          <mxGeometry y="280" width="60" height="130" as="geometry" />
        </mxCell>
        <mxCell id="r7i42FBxpiTpP9dNDPeG-27" value="&lt;span style=&quot;font-family: 宋体; font-size: 20px;&quot;&gt;部分卸载技术&lt;/span&gt;" style="rounded=1;whiteSpace=wrap;html=1;fillColor=#d5e8d4;strokeColor=#82b366;" vertex="1" parent="1">
          <mxGeometry x="100" y="280" width="60" height="130" as="geometry" />
        </mxCell>
        <mxCell id="r7i42FBxpiTpP9dNDPeG-28" value="&lt;span style=&quot;font-family: 宋体; font-size: 20px;&quot;&gt;单一资源优化&lt;/span&gt;" style="rounded=1;whiteSpace=wrap;html=1;fillColor=#ffe6cc;strokeColor=#d79b00;" vertex="1" parent="1">
          <mxGeometry x="220" y="280" width="60" height="130" as="geometry" />
        </mxCell>
        <mxCell id="r7i42FBxpiTpP9dNDPeG-29" value="&lt;span style=&quot;font-family: 宋体; font-size: 20px;&quot;&gt;联合资源优化&lt;/span&gt;" style="rounded=1;whiteSpace=wrap;html=1;fillColor=#ffe6cc;strokeColor=#d79b00;" vertex="1" parent="1">
          <mxGeometry x="340" y="280" width="60" height="130" as="geometry" />
        </mxCell>
        <mxCell id="r7i42FBxpiTpP9dNDPeG-30" value="&lt;span style=&quot;font-family: 宋体; font-size: 20px;&quot;&gt;车联网服务缓存&lt;/span&gt;" style="rounded=1;whiteSpace=wrap;html=1;fillColor=#fff2cc;strokeColor=#d6b656;" vertex="1" parent="1">
          <mxGeometry x="490" y="280" width="80" height="130" as="geometry" />
        </mxCell>
        <mxCell id="r7i42FBxpiTpP9dNDPeG-31" value="&lt;span style=&quot;font-family: &amp;quot;Times New Roman&amp;quot;;&quot;&gt;&lt;font style=&quot;font-size: 20px;&quot;&gt;NOMA&lt;/font&gt;&lt;/span&gt;&lt;span style=&quot;color: light-dark(rgb(0, 0, 0), rgb(255, 255, 255)); background-color: transparent; font-family: 宋体;&quot;&gt;&lt;font style=&quot;font-size: 20px;&quot;&gt;技术&lt;/font&gt;&lt;/span&gt;" style="rounded=1;whiteSpace=wrap;html=1;fillColor=#f8cecc;strokeColor=#b85450;" vertex="1" parent="1">
          <mxGeometry x="660" y="280" width="70" height="130" as="geometry" />
        </mxCell>
        <mxCell id="r7i42FBxpiTpP9dNDPeG-32" value="&lt;span style=&quot;font-size: 20px; font-family: &amp;quot;Times New Roman&amp;quot;;&quot;&gt;NOMA&lt;font face=&quot;宋体&quot;&gt;与&lt;/font&gt;&lt;font face=&quot;Times New Roman&quot;&gt;MEC&lt;/font&gt;&lt;font face=&quot;宋体&quot;&gt;协同&lt;/font&gt;&lt;/span&gt;&lt;span style=&quot;color: light-dark(rgb(0, 0, 0), rgb(255, 255, 255)); background-color: transparent; font-size: 20px; font-family: 宋体;&quot;&gt;技术&lt;/span&gt;" style="rounded=1;whiteSpace=wrap;html=1;fillColor=#f8cecc;strokeColor=#b85450;" vertex="1" parent="1">
          <mxGeometry x="770" y="280" width="70" height="130" as="geometry" />
        </mxCell>
        <mxCell id="r7i42FBxpiTpP9dNDPeG-33" value="" style="endArrow=classic;html=1;rounded=0;exitX=0.438;exitY=1.014;exitDx=0;exitDy=0;exitPerimeter=0;entryX=0.5;entryY=0;entryDx=0;entryDy=0;" edge="1" parent="1" source="r7i42FBxpiTpP9dNDPeG-3" target="r7i42FBxpiTpP9dNDPeG-26">
          <mxGeometry width="50" height="50" relative="1" as="geometry">
            <mxPoint x="110" y="500" as="sourcePoint" />
            <mxPoint x="160" y="450" as="targetPoint" />
          </mxGeometry>
        </mxCell>
        <mxCell id="r7i42FBxpiTpP9dNDPeG-34" value="" style="endArrow=classic;html=1;rounded=0;entryX=0.5;entryY=0;entryDx=0;entryDy=0;" edge="1" parent="1" target="r7i42FBxpiTpP9dNDPeG-27">
          <mxGeometry width="50" height="50" relative="1" as="geometry">
            <mxPoint x="80" y="230" as="sourcePoint" />
            <mxPoint x="230" y="460" as="targetPoint" />
          </mxGeometry>
        </mxCell>
        <mxCell id="r7i42FBxpiTpP9dNDPeG-35" value="" style="endArrow=classic;html=1;rounded=0;entryX=0.5;entryY=0;entryDx=0;entryDy=0;" edge="1" parent="1" target="r7i42FBxpiTpP9dNDPeG-28">
          <mxGeometry width="50" height="50" relative="1" as="geometry">
            <mxPoint x="310" y="230" as="sourcePoint" />
            <mxPoint x="400" y="470" as="targetPoint" />
          </mxGeometry>
        </mxCell>
        <mxCell id="r7i42FBxpiTpP9dNDPeG-36" value="" style="endArrow=classic;html=1;rounded=0;exitX=0.5;exitY=1;exitDx=0;exitDy=0;entryX=0.5;entryY=0;entryDx=0;entryDy=0;" edge="1" parent="1" source="r7i42FBxpiTpP9dNDPeG-4" target="r7i42FBxpiTpP9dNDPeG-29">
          <mxGeometry width="50" height="50" relative="1" as="geometry">
            <mxPoint x="370" y="510" as="sourcePoint" />
            <mxPoint x="420" y="460" as="targetPoint" />
          </mxGeometry>
        </mxCell>
        <mxCell id="r7i42FBxpiTpP9dNDPeG-38" value="" style="endArrow=classic;html=1;rounded=0;entryX=0.5;entryY=0;entryDx=0;entryDy=0;" edge="1" parent="1" target="r7i42FBxpiTpP9dNDPeG-31">
          <mxGeometry width="50" height="50" relative="1" as="geometry">
            <mxPoint x="750" y="230" as="sourcePoint" />
            <mxPoint x="710" y="480" as="targetPoint" />
          </mxGeometry>
        </mxCell>
        <mxCell id="r7i42FBxpiTpP9dNDPeG-40" value="" style="endArrow=classic;html=1;rounded=0;exitX=0.5;exitY=1;exitDx=0;exitDy=0;entryX=0.5;entryY=0;entryDx=0;entryDy=0;" edge="1" parent="1" source="r7i42FBxpiTpP9dNDPeG-6" target="r7i42FBxpiTpP9dNDPeG-32">
          <mxGeometry width="50" height="50" relative="1" as="geometry">
            <mxPoint x="770" y="520" as="sourcePoint" />
            <mxPoint x="820" y="470" as="targetPoint" />
          </mxGeometry>
        </mxCell>
      </root>
    </mxGraphModel>
  </diagram>
</mxfile>
